<?xml version="1.0" encoding="utf-8"?>
<!-- Generator: Adobe Illustrator 16.0.0, SVG Export Plug-In . SVG Version: 6.00 Build 0)  -->
<!DOCTYPE svg PUBLIC "-//W3C//DTD SVG 1.1//EN" "http://www.w3.org/Graphics/SVG/1.1/DTD/svg11.dtd">
<svg version="1.1" id="Layer_1" xmlns="http://www.w3.org/2000/svg" xmlns:xlink="http://www.w3.org/1999/xlink" x="0px" y="0px"
	 width="392.292px" height="81.314px" viewBox="0 0 392.292 81.314" enable-background="new 0 0 392.292 81.314"
	 xml:space="preserve">
<path fill="#58595B" d="M119.115,46.027c0,12.973-10.508,23.027-24.065,23.027c-13.557,0-24.065-10.055-24.065-23.027
	c0-13.038,10.508-22.897,24.065-22.897C108.607,23.13,119.115,33.054,119.115,46.027 M78.769,46.027
	c0,9.017,7.459,16.151,16.346,16.151c8.886,0,16.152-7.135,16.152-16.151c0-9.017-7.266-16.021-16.152-16.021
	C86.164,30.006,78.769,37.01,78.769,46.027"/>
<path fill="#58595B" d="M159.271,51.605c0,10.313-6.486,17.384-16.345,17.384c-5.514,0-9.665-2.204-12.195-6.227v18.552h-7.46
	V34.222h7.46v5.968c2.53-4.022,6.681-6.227,12.065-6.227C152.59,33.963,159.271,41.098,159.271,51.605 M151.748,51.347
	c0-6.422-4.346-11.157-10.508-11.157c-6.162,0-10.508,4.671-10.508,11.157c0,6.681,4.346,11.286,10.508,11.286
	C147.401,62.633,151.748,57.963,151.748,51.347"/>
<path fill="#58595B" d="M196.121,54.33h-26.076c1.168,5.319,5.254,8.627,10.703,8.627c3.762,0,7.199-1.427,9.729-4.021l3.957,4.216
	c-3.373,3.698-8.302,5.838-14.27,5.838c-10.638,0-17.643-7.07-17.643-17.448c0-10.443,7.199-17.513,17.448-17.578
	C192.098,33.963,197.028,41.876,196.121,54.33 M189.633,48.882c-0.259-5.579-3.957-8.952-9.6-8.952
	c-5.449,0-9.275,3.438-10.119,8.952H189.633z"/>
<path fill="#58595B" d="M234.329,47.26V68.73h-7.459V49.336c0-5.189-3.113-8.368-8.303-8.368c-5.708,0.065-9.275,4.021-9.794,9.405
	V68.73h-7.46V34.222h7.46v6.616c2.465-4.8,6.875-6.875,12.713-6.875C229.529,33.963,234.329,39.023,234.329,47.26"/>
<polygon fill="#F26E23" points="249.835,30.2 249.835,42.46 272.02,42.46 272.02,49.336 249.835,49.336 249.835,61.854 
	275.393,61.854 275.393,68.73 242.182,68.73 242.182,23.324 274.615,23.324 274.615,30.2 "/>
<polygon fill="#F26E23" points="292.197,68.73 278.834,34.222 286.619,34.222 296.217,61.4 305.689,34.222 313.148,34.222 
	299.916,68.73 "/>
<path fill="#F26E23" d="M338.059,64.514c-2.464,3.049-6.42,4.541-11.416,4.541c-7.459,0-12.129-4.605-12.129-10.703
	c0-6.292,4.735-10.314,13.038-10.378h10.443v-1.038c0-4.346-2.789-6.94-8.238-6.94c-3.308,0-6.745,1.167-10.184,3.503l-3.049-5.189
	c4.801-2.854,8.303-4.346,14.854-4.346c8.887,0,13.881,4.54,13.946,12.13l0.064,22.638h-7.331V64.514z M337.996,56.601v-3.179
	h-9.341c-4.864,0-7.135,1.298-7.135,4.605c0,3.113,2.529,5.124,6.681,5.124C333.52,63.151,337.606,60.362,337.996,56.601"/>
<rect x="353.113" y="20.601" fill="#F26E23" width="7.459" height="48.13"/>
<path fill="#F26E23" d="M391.708,37.4l-2.724,5.514c-3.049-1.881-6.876-3.049-9.925-3.049c-2.919,0-5.06,0.974-5.06,3.438
	c0,6.357,18.357,2.919,18.292,15.438c0,7.07-6.292,10.248-13.232,10.248c-5.06,0-10.443-1.687-13.881-4.8l2.659-5.318
	c2.984,2.659,7.784,4.28,11.546,4.28c3.178,0,5.644-1.103,5.644-3.697c0-7.07-18.162-3.113-18.098-15.567
	c0-7.005,6.098-9.989,12.714-9.989C383.99,33.897,388.595,35.195,391.708,37.4"/>
<path fill="#F26E23" d="M0.84,32.046c0,0,5.133-16.308,19.618-14.355c12.656,1.707,8.426,4.707,21.489,3.207
	c16.17-1.857,16.312,11.985,15.714,17.129c-0.599,5.145-0.359,12.082-5.982,21.532c-5.622,9.45-10.526,13.517-13.876,13.996
	c-3.349,0.478-3.721-1.437-8.499-1.675c-4.779-0.239-5.377,3.708-11.238,1.195C12.204,70.564-3.825,52.98,0.84,32.046"/>
<path fill="#FFFFFF" d="M12.317,33.74l7.09-1.837c1.847-0.667,3.857,0.453,4.261,2.374l1.405,6.675c0,0,13.273-25.339,31.055-34.52
	c1.602-0.827,3.537,0.23,3.749,2.02l0.641,5.424c0.172,1.454-0.46,2.888-1.668,3.717c-5.027,3.447-18.036,14.199-34.058,45.456
	c-0.779,1.52-2.99,1.403-3.591-0.194l-10.436-25.75C10.254,35.746,10.953,34.233,12.317,33.74"/>
<path fill="none" stroke="#F26E23" stroke-width="4" stroke-linecap="round" stroke-miterlimit="10" d="M12.317,33.74l7.09-1.837
	c1.847-0.667,3.857,0.453,4.261,2.374l1.405,6.675c0,0,13.273-25.339,31.055-34.52c1.602-0.827,3.537,0.23,3.749,2.02l0.641,5.424
	c0.172,1.454-0.46,2.888-1.668,3.717c-5.027,3.447-18.036,14.199-34.058,45.456c-0.779,1.52-2.99,1.403-3.591-0.194l-10.436-25.75
	C10.254,35.746,10.953,34.233,12.317,33.74z"/>
<path fill="#58595B" d="M34.853,18.891c0,0,3.932-11.163-13.403-18.891C21.45,0,18.837,18.536,34.853,18.891"/>
<rect x="-72.224" y="-52.1" fill="none" width="536" height="182.5"/>
</svg>
