<?xml version="1.0" encoding="utf-8"?>
<!-- Generator: Adobe Illustrator 18.0.0, SVG Export Plug-In . SVG Version: 6.00 Build 0)  -->
<!DOCTYPE svg PUBLIC "-//W3C//DTD SVG 1.1//EN" "http://www.w3.org/Graphics/SVG/1.1/DTD/svg11.dtd">
<svg version="1.1" id="Layer_1" xmlns="http://www.w3.org/2000/svg" xmlns:xlink="http://www.w3.org/1999/xlink" x="0px" y="0px"
	 viewBox="0 0 960 960" enable-background="new 0 0 960 960" xml:space="preserve">
<g>
	<path fill="#58595B" d="M933.3,418.9c-3.2-6.7-9.9-10.9-17.3-10.9h-56.3C823.8,213.6,653.3,65.9,448.6,65.9
		C218.1,65.9,30.5,253.4,30.5,484c0,230.6,187.6,418.2,418.1,418.2c148.8,0,287.6-80.1,362.2-209c10.5-18.1,4.3-41.4-13.9-52
		c-18.1-10.5-41.4-4.3-51.9,13.9c-61.1,105.4-174.6,171.1-296.4,171.1C260,826.1,106.5,672.7,106.5,484
		c0-188.6,153.5-342.1,342.1-342.1c162.5,0,298.7,114,333.3,266.1H726c-7.4,0-14.1,4.3-17.2,11c-3.2,6.7-2.2,14.6,2.6,20.2l95,114.1
		c3.6,4.3,8.9,6.8,14.6,6.8c5.7,0,11-2.4,14.6-6.8l95.1-114.1C935.4,433.5,936.4,425.6,933.3,418.9L933.3,418.9z M933.3,418.9"/>
	<path fill="#F26E23" d="M448.6,160.9c-21,0-38,17-38,38.1v230.6c-17.2,12-28.5,32-28.5,54.4c0,36.7,29.8,66.5,66.5,66.5
		c10.1,0,19.4-2.4,28-6.4l132.2,76.3c6,3.5,12.5,5.2,19,5.2c13.2,0,25.9-6.9,33-19.1c10.4-18.1,4.2-41.4-13.9-51.9l-132.4-76.4
		c-1.8-20.1-12.2-37.7-27.9-48.7V198.9C486.6,178,469.6,160.9,448.6,160.9L448.6,160.9z M448.6,512.5c-15.7,0-28.5-12.8-28.5-28.6
		c0-15.7,12.8-28.5,28.5-28.5c15.8,0,28.6,12.8,28.6,28.5C477.1,499.7,464.4,512.5,448.6,512.5L448.6,512.5z M448.6,512.5"/>
</g>
<circle fill="none" stroke="#F26E23" stroke-width="44.6755" stroke-linecap="round" stroke-miterlimit="10" cx="448.6" cy="484" r="48.5"/>
</svg>
