<?xml version="1.0" encoding="utf-8"?>
<!-- Generator: Adobe Illustrator 18.0.0, SVG Export Plug-In . SVG Version: 6.00 Build 0)  -->
<!DOCTYPE svg PUBLIC "-//W3C//DTD SVG 1.1//EN" "http://www.w3.org/Graphics/SVG/1.1/DTD/svg11.dtd">
<svg version="1.1" id="Layer_1" xmlns="http://www.w3.org/2000/svg" xmlns:xlink="http://www.w3.org/1999/xlink" x="0px" y="0px"
	 viewBox="0 0 960 960" enable-background="new 0 0 960 960" xml:space="preserve">
<g>
	<path fill="#58595B" d="M745.9,391.3V273.1c0-146.8-119-265.8-265.8-265.8c-146.9,0-266,119-266,265.8v118.1
		c-48.9,0-88.6,39.7-88.6,88.7v206.7c0,146.9,119,266,265.8,266h177.3c146.9,0,265.8-119.2,265.8-266V480
		C834.5,431,794.8,391.3,745.9,391.3L745.9,391.3z M273.2,273.1c0-114.3,92.6-206.7,206.9-206.7c114.1,0,206.7,92.4,206.7,206.7
		v118.1h-59v-118c0-81.6-66.2-147.7-147.7-147.7c-81.6,0-147.7,66.1-147.7,147.7v118h-59.2V273.1z M598.2,273.1v118.1H361.8V273.1
		c0-65.2,53-118.1,118.3-118.1C545.3,155,598.2,208,598.2,273.1L598.2,273.1z M775.5,568.6v118.1c0,114.1-92.9,206.9-206.9,206.9
		H391.4c-114,0-206.7-92.8-206.7-206.9V480c0-16.3,13.1-29.6,29.4-29.6h531.9c16.3,0,29.6,13.3,29.6,29.6V568.6z M775.5,568.6"/>
	<path fill="#F26E23" d="M480.1,568.6c-32.6,0-59.2,26.4-59.2,59.2c0,17.9,9.8,51.9,19.8,78.9c7.9,21.9,18,39.3,39.4,39.3
		c23.1,0,31.3-17.2,39.4-39c10-27,19.6-61.2,19.6-79.2C539.1,595,512.7,568.6,480.1,568.6L480.1,568.6z M480.1,568.6"/>
</g>
<path fill="#F26E23" d="M686.8,391.9h-59v-118c0-81.6-66.2-147.7-147.7-147.7c-81.6,0-147.7,66.1-147.7,147.7v118h-59.2"/>
<path fill="#FFFFFF" d="M598.2,273.8L598.2,273.8v118.1H361.8V273.8c0-65.2,53-118.1,118.3-118.1
	C545.3,155.7,598.2,208.6,598.2,273.8"/>
</svg>
