<?xml version="1.0" encoding="utf-8"?>
<!-- Generator: Adobe Illustrator 18.0.0, SVG Export Plug-In . SVG Version: 6.00 Build 0)  -->
<!DOCTYPE svg PUBLIC "-//W3C//DTD SVG 1.1//EN" "http://www.w3.org/Graphics/SVG/1.1/DTD/svg11.dtd">
<svg version="1.1" id="Layer_1" xmlns="http://www.w3.org/2000/svg" xmlns:xlink="http://www.w3.org/1999/xlink" x="0px" y="0px"
	 viewBox="0 0 960 960" enable-background="new 0 0 960 960" xml:space="preserve">
<path fill="#58595B" d="M856.1,100.5c-29.1-29.1-56.8-1.6-150.9,43.7c-180.1,86.6-456,237.1-598.5,315.8
	c-29.8,16.5-21.6,61.3,12.1,66.2l246.4,35.2c15.6,2.2,27.9,14.5,30.1,30.1l35.2,246.4c4.8,33.7,49.7,41.9,66.2,12.1
	c78.7-142.5,229.2-418.4,315.8-598.5C857.7,157.2,885.2,129.6,856.1,100.5L856.1,100.5z M706.4,325L560.9,603.1
	c-19.8,37.8-75,27-80-15.6l-14.8-126.4c-1.6-14,3.4-28,13.5-37.6l160.2-151.7C675.3,238.2,729.2,281.3,706.4,325z M765.6,197.5"/>
<path fill="none" stroke="#F26E23" stroke-width="26.3826" stroke-linecap="round" stroke-miterlimit="10" d="M511.2,591.7
	l-10.9-109.1c-1.9-17.4,4.3-34.7,16.8-46.9l149.6-148.7"/>
</svg>
