<?xml version="1.0" encoding="UTF-8"?>
<svg width="235px" height="72px" viewBox="0 0 235 72" version="1.1" xmlns="http://www.w3.org/2000/svg" xmlns:xlink="http://www.w3.org/1999/xlink">
    <!-- Generator: Sketch 3.8.2 (29753) - http://www.bohemiancoding.com/sketch -->
    <title>Artboard 1</title>
    <desc>Created with Sketch.</desc>
    <defs></defs>
    <g id="Page-1" stroke="none" stroke-width="1" fill="none" fill-rule="evenodd">
        <g id="Artboard-1">
            <g id="Group-2">
                <g id="Group" transform="translate(118.000000, 19.000000)" fill="#231F20">
                    <polygon id="Shape" points="6.802 0.126 25.565 25.293 25.565 0.126 31.369 0.126 31.369 35.149 25.565 35.149 6.902 10.032 6.902 35.149 0.999 35.149 0.999 0.126"></polygon>
                    <path d="M54.187,35.15 L54.187,31.898 C52.286,34.25 49.233,35.4 45.38,35.4 C39.626,35.4 36.025,31.848 36.025,27.145 C36.025,22.292 39.677,19.189 46.082,19.14 L54.137,19.14 L54.137,18.34 C54.137,14.987 51.986,12.986 47.783,12.986 C45.231,12.986 42.579,13.887 39.928,15.688 L37.576,11.685 C41.278,9.484 43.98,8.333 49.034,8.333 C55.888,8.333 59.741,11.835 59.791,17.689 L59.841,35.151 L54.187,35.151 L54.187,35.15 Z M54.136,25.793 L54.136,23.341 L46.932,23.341 C43.179,23.341 41.428,24.342 41.428,26.894 C41.428,29.295 43.379,30.847 46.581,30.847 C50.684,30.847 53.836,28.696 54.136,25.793 L54.136,25.793 Z" id="Shape"></path>
                    <path d="M93.465,21.941 C93.465,29.897 88.462,35.35 80.857,35.35 C76.604,35.35 73.402,33.649 71.451,30.547 L71.451,44.857 L65.697,44.857 L65.697,8.533 L71.451,8.533 L71.451,13.136 C73.402,10.034 76.604,8.333 80.758,8.333 C88.312,8.332 93.465,13.835 93.465,21.941 L93.465,21.941 Z M87.661,21.741 C87.661,16.788 84.308,13.136 79.556,13.136 C74.804,13.136 71.451,16.738 71.451,21.741 C71.451,26.895 74.804,30.447 79.556,30.447 C84.308,30.447 87.661,26.844 87.661,21.741 L87.661,21.741 Z" id="Shape"></path>
                    <path d="M104.926,12.885 C102.675,12.885 101.024,13.635 101.024,15.537 C101.024,20.44 115.183,17.788 115.133,27.445 C115.133,32.899 110.279,35.35 104.926,35.35 C101.024,35.35 96.87,34.049 94.219,31.647 L96.271,27.544 C98.572,29.595 102.275,30.846 105.176,30.846 C107.628,30.846 109.53,29.995 109.53,27.994 C109.53,22.54 95.52,25.592 95.57,15.986 C95.57,10.583 100.273,8.281 105.377,8.281 C108.73,8.281 112.282,9.282 114.684,10.983 L112.582,15.235 C110.229,13.786 107.277,12.885 104.926,12.885 L104.926,12.885 Z" id="Shape"></path>
                </g>
                <polygon id="Shape" fill="#F47B20" points="27.242 39.51 27.242 44.094 9.142 65.529 27.778 65.589 27.778 71.186 0.687 71.126 0.687 66.482 18.787 45.047 1.223 45.047 1.223 39.45"></polygon>
                <polygon id="Shape" fill="#231F20" points="61.155 22.539 61.155 28.041 39.432 53.766 61.798 53.837 61.798 60.554 29.285 60.483 29.285 54.909 51.008 29.184 29.928 29.184 29.928 22.467"></polygon>
                <polygon id="Shape" fill="#F47B20" points="101.191 0.783 101.191 7.458 74.838 38.665 101.971 38.752 101.971 46.9 62.529 46.813 62.529 40.052 88.881 8.845 63.31 8.845 63.31 0.697"></polygon>
            </g>
        </g>
    </g>
</svg>