<?xml version="1.0" standalone="no"?>
<!DOCTYPE svg PUBLIC "-//W3C//DTD SVG 20010904//EN"
 "http://www.w3.org/TR/2001/REC-SVG-20010904/DTD/svg10.dtd">
<svg version="1.0" xmlns="http://www.w3.org/2000/svg"
 width="16.000000pt" height="16.000000pt" viewBox="0 0 16.000000 16.000000"
 preserveAspectRatio="xMidYMid meet">
<metadata>
Created by potrace 1.11, written by Peter Selinger 2001-2013
</metadata>
<g transform="translate(0.000000,16.000000) scale(0.004938,-0.004938)"
fill="#000000" stroke="none">
<path d="M2001 2585 c0 -110 2 -125 17 -126 9 0 191 -1 405 -1 213 -1 387 -2
387 -4 0 -3 -149 -177 -266 -309 -29 -33 -62 -71 -74 -85 -12 -14 -45 -52 -74
-85 -230 -261 -416 -479 -417 -489 -4 -49 -3 -196 1 -197 3 -1 285 -3 628 -4
l622 -3 1 77 c1 99 -2 165 -7 170 -3 3 -195 6 -427 7 -232 1 -423 2 -425 3 -1
1 13 18 31 39 19 20 117 132 217 247 101 116 208 239 240 275 31 36 123 140
202 233 l145 167 1 100 c1 86 -1 99 -16 103 -9 3 -281 5 -604 6 l-587 2 0
-126z"/>
<path d="M940 1933 l0 -103 336 0 336 0 -59 -67 c-33 -38 -140 -160 -238 -273
-97 -113 -191 -220 -207 -238 -17 -19 -60 -68 -96 -110 -37 -43 -72 -83 -79
-90 -9 -9 -13 -44 -13 -103 l0 -89 518 0 517 0 -2 97 c0 54 -2 101 -2 106 -1
4 -159 7 -351 7 -389 0 -365 -5 -300 67 19 21 60 68 90 103 30 36 64 74 75 86
11 11 43 47 70 79 129 152 298 346 352 404 23 25 43 53 44 61 1 21 2 121 0
145 -1 20 -8 20 -496 21 l-495 0 0 -103z"/>
<path d="M31 1500 c-4 -8 -7 -46 -6 -85 l0 -70 278 -5 278 -5 -192 -220 c-105
-121 -215 -247 -243 -279 -28 -33 -70 -82 -93 -108 -42 -48 -43 -50 -43 -122
l0 -73 430 -2 430 -2 0 88 0 88 -294 0 c-193 0 -292 3 -288 10 7 12 113 136
128 150 6 6 51 57 100 115 49 57 96 111 104 120 8 9 40 45 70 80 30 35 73 83
95 108 65 73 69 81 69 154 l1 68 -408 2 c-356 3 -410 1 -416 -12z"/>
</g>
</svg>
