<?xml version="1.0" encoding="utf-8"?>
<!-- Generator: Adobe Illustrator 16.0.0, SVG Export Plug-In . SVG Version: 6.00 Build 0)  -->
<!DOCTYPE svg PUBLIC "-//W3C//DTD SVG 1.1//EN" "http://www.w3.org/Graphics/SVG/1.1/DTD/svg11.dtd">
<svg version="1.1" id="Layer_1" xmlns="http://www.w3.org/2000/svg" xmlns:xlink="http://www.w3.org/1999/xlink" x="0px" y="0px"
	 width="2319px" height="1993px" viewBox="0 0 2319 1993" enable-background="new 0 0 2319 1993" xml:space="preserve">
<polygon fill="#F36E21" points="214,40 214,1277 764.896,1277 1159,1946.101 1159,1945.697 1526.469,1277 2104,1277 2104,40 "/>
<g>
	<path fill="#FFFFFF" d="M909.126,688.024v55.519l-219.191,259.568l225.68,0.721v67.776l-328.065-0.721v-56.24L806.741,755.08
		H594.039v-67.776L909.126,688.024z"/>
</g>
<g>
	<path fill="#FFFFFF" d="M1319.782,482.518v66.629l-263.054,311.512l270.842,0.865v81.339l-393.716-0.865v-67.494l263.054-311.512
		H941.642v-81.339L1319.782,482.518z"/>
</g>
<g>
	<defs>
		<rect id="SVGID_1_" width="2319" height="1993"/>
	</defs>
	<clipPath id="SVGID_2_">
		<use xlink:href="#SVGID_1_"  overflow="visible"/>
	</clipPath>
	<g clip-path="url(#SVGID_2_)">
		<path fill="#FFFFFF" d="M1804.601,219.078v80.827l-319.107,377.892l328.555,1.049v98.672l-477.612-1.05v-81.876L1655.544,316.7
			h-309.661v-98.672L1804.601,219.078z"/>
	</g>
</g>
</svg>
